# xmcd
#
# Track frame offsets:
#	150
#	17228
#	29882
#	45693
#	58288
#	72495
#	85793
#	96388
#	109711
#	121046
#	132761
#
# Disc length: 1924 seconds
# Revision: 0
# Processed by: cddbd v1.5.2PL0 Copyright (c) Steve Scherf et al.
# Submitted via: dBpowerAMP V12.0
#
DISCID=9c07820b
DTITLE=Ray Price - For the Good Times (Vinyl)
DYEAR=1970
DGENRE=
TTITLE0=For The Good Times
TTITLE1=	Gonna Burn Some Bridges
TTITLE2=	Crazy Arms
TTITLE3=I'll Go To A Stranger
TTITLE4=	Black And White Lies
TTITLE5=Grazin' In Greener Pastures
TTITLE6=Help Me Make It Through The Night
TTITLE7=Lonely World
TTITLE8=	You Can't Take It With You
TTITLE9=A Cold Day In July
TTITLE10=Heartaches By The Number
EXTD=
EXTT0=
EXTT1=
EXTT2=
EXTT3=
EXTT4=
EXTT5=
EXTT6=
EXTT7=
EXTT8=
EXTT9=
EXTT10=
PLAYORDER=
